<?xml version="1.0" standalone="no"?>
<!DOCTYPE svg PUBLIC "-//W3C//DTD SVG 20010904//EN"
 "http://www.w3.org/TR/2001/REC-SVG-20010904/DTD/svg10.dtd">
<svg version="1.0" xmlns="http://www.w3.org/2000/svg"
 width="128.000000pt" height="128.000000pt" viewBox="0 0 128.000000 128.000000"
 preserveAspectRatio="xMidYMid meet">

<g transform="translate(0.000000,128.000000) scale(0.100000,-0.100000)"
fill="currentColor" stroke="none">
<path d="M231 1266 c-8 -9 -10 -160 -9 -542 l3 -529 28 -3 27 -3 0 -83 c0
-108 10 -118 82 -88 l51 21 49 -21 c73 -31 82 -22 86 86 l3 86 205 0 c228 0
249 5 284 63 19 30 20 53 20 481 0 432 -1 450 -20 481 -39 64 -49 65 -443 65
-287 0 -357 -3 -366 -14z m559 -536 l0 -470 -250 0 -250 0 0 470 0 470 250 0
250 0 0 -470z m184 448 c14 -19 16 -79 16 -446 l0 -423 -25 -24 c-18 -18 -35
-25 -65 -25 l-40 0 0 470 0 470 49 0 c40 0 53 -4 65 -22z m-504 -1034 c0 -40
-2 -45 -17 -38 -23 10 -53 10 -80 0 -22 -7 -23 -5 -23 38 l0 46 60 0 60 0 0
-46z"/>
</g>
</svg>
