<svg width="17" height="17" viewBox="0 0 17 17" fill="none" xmlns="http://www.w3.org/2000/svg">
<circle cx="8.5" cy="8.5" r="7.5" fill="#3B82F6" stroke="white"/>
<path d="M8.5 0C3.808 0 0 3.808 0 8.5C0 13.192 3.808 17 8.5 17C13.192 17 17 13.192 17 8.5C17 3.808 13.192 0 8.5 0ZM8.5 15.3C4.7515 15.3 1.7 12.2485 1.7 8.5C1.7 4.7515 4.7515 1.7 8.5 1.7C12.2485 1.7 15.3 4.7515 15.3 8.5C15.3 12.2485 12.2485 15.3 8.5 15.3ZM12.4015 4.743L6.8 10.3445L4.5985 8.1515L3.4 9.35L6.8 12.75L13.6 5.95L12.4015 4.743Z" fill="white"/>
</svg>
