<?xml version="1.0" standalone="no"?>
<!DOCTYPE svg PUBLIC "-//W3C//DTD SVG 20010904//EN"
 "http://www.w3.org/TR/2001/REC-SVG-20010904/DTD/svg10.dtd">
<svg version="1.0" xmlns="http://www.w3.org/2000/svg"
 width="128.000000pt" height="128.000000pt" viewBox="0 0 128.000000 128.000000"
 preserveAspectRatio="xMidYMid meet">

<g transform="translate(0.000000,128.000000) scale(0.100000,-0.100000)"
fill="currentColor" stroke="none">
<path d="M300 985 l-295 -295 0 -44 c0 -60 28 -97 88 -115 l47 -15 0 -206 c0
-199 1 -208 23 -241 37 -56 76 -69 205 -69 62 0 122 5 133 10 18 10 19 23 19
184 0 215 -4 208 131 204 121 -4 119 0 119 -213 0 -112 4 -165 12 -173 8 -8
51 -12 127 -12 92 0 125 4 158 19 72 33 78 54 81 293 l3 208 39 10 c75 20 112
100 76 168 -18 32 -542 555 -573 571 -12 6 -39 11 -59 11 -37 0 -51 -12 -334
-295z m632 -52 c153 -153 278 -283 278 -290 0 -24 -32 -43 -74 -43 -23 0 -47
-5 -54 -12 -9 -9 -12 -76 -12 -238 0 -284 7 -270 -131 -270 l-99 0 0 148 c0
165 -9 193 -72 232 -45 27 -196 29 -248 2 -62 -31 -75 -67 -78 -235 l-4 -147
-91 0 c-51 0 -97 4 -103 8 -30 19 -34 55 -34 275 0 249 4 237 -69 237 -42 0
-61 14 -61 45 0 24 537 565 560 565 8 0 140 -125 292 -277z"/>
</g>
</svg>
