<?xml version="1.0" standalone="no"?>
<!DOCTYPE svg PUBLIC "-//W3C//DTD SVG 20010904//EN"
 "http://www.w3.org/TR/2001/REC-SVG-20010904/DTD/svg10.dtd">
<svg version="1.0" xmlns="http://www.w3.org/2000/svg"
 width="128.000000pt" height="128.000000pt" viewBox="0 0 128.000000 128.000000"
 preserveAspectRatio="xMidYMid meet">

<g transform="translate(0.000000,128.000000) scale(0.100000,-0.100000)"
fill="currentColor" stroke="none">
<path d="M392 1185 c-74 -34 -140 -81 -147 -106 -4 -11 -1 -43 5 -70 11 -43
10 -57 -5 -95 -20 -52 -65 -90 -120 -102 -66 -13 -80 -44 -80 -172 0 -125 8
-141 80 -159 89 -22 132 -85 120 -174 -13 -97 -10 -109 26 -140 41 -34 164
-97 191 -97 10 0 38 18 61 40 48 43 83 60 128 60 38 0 97 -30 126 -64 39 -44
103 -30 209 46 55 39 67 67 52 121 -23 89 24 177 109 200 24 6 54 22 66 35 20
21 22 34 22 131 0 129 -12 155 -79 172 -85 21 -137 109 -115 193 15 55 5 82
-44 117 -49 37 -155 89 -178 89 -9 0 -39 -18 -65 -40 -27 -22 -63 -43 -81 -46
-53 -10 -95 3 -147 46 -26 22 -56 40 -65 40 -9 0 -40 -11 -69 -25z m177 -133
c80 -24 159 -8 219 44 l37 32 40 -20 c22 -11 54 -31 72 -44 29 -22 30 -26 22
-61 -12 -53 6 -132 41 -180 19 -25 52 -51 87 -69 32 -16 61 -33 65 -39 4 -5 8
-40 8 -76 0 -70 -6 -81 -50 -94 -46 -13 -101 -58 -128 -104 -23 -40 -27 -57
-27 -130 -1 -91 -1 -93 -77 -132 l-38 -19 -45 35 c-25 19 -65 40 -88 46 -76
20 -172 -7 -226 -64 -27 -30 -44 -26 -123 24 -43 28 -46 33 -37 55 16 43 10
125 -12 171 -27 55 -92 111 -146 126 l-43 11 0 72 c0 80 10 98 59 109 39 8
107 69 131 115 26 51 34 108 22 153 -12 42 -11 43 69 86 l53 29 38 -32 c21
-18 55 -38 77 -44z"/>
<path d="M560 867 c-49 -16 -133 -102 -148 -153 -28 -94 -8 -169 63 -239 101
-102 229 -102 330 0 102 101 102 229 0 330 -70 71 -152 91 -245 62z m143 -81
c103 -43 128 -177 48 -257 -65 -65 -157 -65 -222 0 -124 123 13 325 174 257z"/>
</g>
</svg>
